<svg width="70" height="70" viewBox="0 0 70 70" fill="none" xmlns="http://www.w3.org/2000/svg">
<g clip-path="url(#clip0_2696_8443)">
<circle cx="35" cy="35" r="35" fill="#FDB913"/>
<path d="M56.9758 38.7875C56.9824 37.7992 56.7375 36.8257 56.2645 35.9596C55.7915 35.0935 55.106 34.3637 54.2735 33.8396C54.0428 33.7048 53.8738 33.4843 53.8027 33.2255C53.7504 33.0501 53.8027 32.9536 53.9335 32.8658C54.2996 32.6641 54.6657 32.4535 55.0144 32.2342C55.2123 32.116 55.3703 31.9408 55.4682 31.7312C55.5661 31.5217 55.5993 31.2874 55.5636 31.0586C55.5456 30.8431 55.4661 30.6373 55.3346 30.4661C55.2032 30.2949 55.0254 30.1656 54.8227 30.0936C54.6509 30.0256 54.4661 29.9973 54.282 30.011C54.0978 30.0247 53.9192 30.0799 53.7592 30.1726L52.9746 30.6288C52.9416 30.5693 52.9125 30.5078 52.8874 30.4445C52.6521 29.7164 52.408 28.9883 52.1639 28.2513C51.8065 27.1723 51.484 26.0845 51.0655 25.023C50.7014 24.0963 50.0587 23.3073 49.2272 22.7662C48.3958 22.2252 47.4171 21.9591 46.428 22.0051H31.6088C31.2011 22.0002 30.7943 22.0443 30.3971 22.1367C29.386 22.3304 28.4667 22.8546 27.782 23.6281C27.4043 24.0682 27.109 24.5734 26.9102 25.1195C26.6429 25.8681 26.3814 26.6225 26.1257 27.3828C25.8816 28.1548 25.6288 28.9269 25.376 29.7076C25.2627 30.0322 25.1494 30.3568 25.0361 30.699L24.1207 30.1726C23.9639 30.0802 23.7881 30.025 23.6068 30.0113C23.4255 29.9977 23.2435 30.0258 23.0747 30.0936C22.8647 30.1734 22.6815 30.3115 22.5465 30.4919C22.4114 30.6724 22.33 30.8877 22.3118 31.1128C22.2935 31.3379 22.3391 31.5636 22.4433 31.7637C22.5475 31.9638 22.706 32.13 22.9003 32.243C23.2839 32.4798 23.6762 32.6904 24.0597 32.9273C24.1382 32.9273 24.2341 33.0588 24.2254 33.1027C24.1556 33.3308 24.1469 33.5852 23.9028 33.7431C22.5866 34.5169 21.6208 35.7752 21.2092 37.2522C21.0758 37.783 21.0056 38.3278 21 38.8752C21 39.5858 21 40.2789 21 40.9807C21 42.7352 21 44.4898 21 46.2444C21.002 46.6842 21.0666 47.1214 21.1918 47.5427C21.4927 48.5775 22.1304 49.4804 23.0026 50.1064C23.8747 50.7325 24.9306 51.0453 26.0007 50.9947C27.0708 50.9441 28.093 50.533 28.9029 49.8274C29.7129 49.1218 30.2637 48.1627 30.4669 47.1041C30.5192 46.8585 30.6063 46.7795 30.8591 46.7795C36.2638 46.7795 41.6684 46.7795 47.0731 46.7795C47.1254 46.7795 47.1777 46.7795 47.2213 46.7795C47.2984 46.8091 47.3651 46.861 47.413 46.9286C47.4828 47.1567 47.5002 47.4024 47.5874 47.6217C47.9351 48.7027 48.6507 49.6256 49.6081 50.2277C50.5656 50.8298 51.7035 51.0726 52.8213 50.9132C53.9392 50.7539 54.9653 50.2026 55.7189 49.3565C56.4725 48.5105 56.9053 47.4239 56.9409 46.2882C57.0019 43.7792 57.0194 41.279 56.9758 38.7875ZM30.9201 42.7177C30.4991 42.7177 30.0875 42.5919 29.7376 42.3563C29.3876 42.1207 29.115 41.7859 28.9542 41.3943C28.7935 41.0026 28.7519 40.5718 28.8347 40.1563C28.9175 39.7408 29.1209 39.3594 29.4192 39.0604C29.7176 38.7614 30.0974 38.5582 30.5106 38.4766C30.9237 38.395 31.3517 38.4387 31.7402 38.602C32.1287 38.7654 32.4603 39.0411 32.6929 39.3943C32.9256 39.7475 33.0489 40.1622 33.0471 40.5859C33.0471 40.8666 32.9921 41.1445 32.8851 41.4037C32.7781 41.663 32.6213 41.8983 32.4236 42.0964C32.226 42.2945 31.9915 42.4513 31.7335 42.558C31.4754 42.6646 31.1991 42.7189 30.9201 42.7177ZM48.1714 42.7177C47.7504 42.7177 47.3388 42.5919 46.9888 42.3563C46.6389 42.1207 46.3663 41.7859 46.2055 41.3943C46.0448 41.0026 46.0032 40.5718 46.086 40.1563C46.1688 39.7408 46.3722 39.3594 46.6705 39.0604C46.9689 38.7614 47.3487 38.5582 47.7619 38.4766C48.175 38.395 48.603 38.4387 48.9915 38.602C49.38 38.7654 49.7116 39.0411 49.9442 39.3943C50.1769 39.7475 50.3002 40.1622 50.2984 40.5859C50.2984 40.8666 50.2434 41.1445 50.1364 41.4037C50.0294 41.663 49.8726 41.8983 49.6749 42.0964C49.4773 42.2945 49.2428 42.4513 48.9847 42.558C48.7267 42.6646 48.4503 42.7189 48.1714 42.7177ZM26.9102 32.8746C27.0149 32.5325 27.1107 32.2167 27.2153 31.9096C27.7268 30.3422 28.2469 28.7719 28.7757 27.1986C28.8978 26.8477 29.0111 26.488 29.1331 26.1371C29.2852 25.647 29.5888 25.2186 29.9995 24.9141C30.4103 24.6096 30.9069 24.4449 31.417 24.4439H46.5849C47.1347 24.4427 47.6688 24.6282 48.1007 24.9705C48.5326 25.3129 48.8371 25.7919 48.9647 26.3301C49.6359 28.4093 50.3333 30.4884 51.022 32.5763C51.022 32.6641 51.022 32.7518 51.1004 32.8746H26.9102Z" fill="#222222"/>
<path d="M25.4991 18.9001L25.7846 20.8399C25.9489 21.8837 26.3813 23.6234 25.2137 23.9104C24.2105 24.154 23.7867 23.3363 23.6742 22.6578L23.2418 19.8395L19.5919 25.2848L13.9442 22.0402L15.8729 28.2857L9.81867 30.7126L15.8729 33.0873L13.9874 39.3501L17.6632 37.1929C17.8346 37.0941 18.0293 37.0435 18.2269 37.0466C18.4244 37.0497 18.6174 37.1064 18.7857 37.2105C18.9539 37.3147 19.091 37.4626 19.1827 37.6386C19.2744 37.8146 19.3172 38.0122 19.3065 38.2106C19.3019 38.4108 19.2472 38.6067 19.1474 38.78C19.0476 38.9533 18.906 39.0985 18.7357 39.2023L14.5929 41.7248C14.2287 41.9326 13.8111 42.0262 13.3936 41.9937C12.9762 41.9612 12.5779 41.804 12.2498 41.5423C11.9218 41.2806 11.679 40.9263 11.5524 40.5249C11.4259 40.1235 11.4215 39.6932 11.5398 39.2892L12.9928 34.4703L8.4262 32.6697C8.04862 32.534 7.71601 32.2954 7.46553 31.9805C7.21505 31.6656 7.05656 31.2868 7.00778 30.8865C6.96911 30.4385 7.07534 29.9899 7.31066 29.6074C7.54598 29.225 7.89781 28.9292 8.31376 28.7641L12.9669 26.894L11.4879 22.0837C11.3495 21.6759 11.3389 21.2352 11.4575 20.8211C11.5761 20.407 11.8182 20.0395 12.1512 19.7682C12.4841 19.497 12.8918 19.335 13.3191 19.3042C13.7465 19.2734 14.173 19.3752 14.541 19.596L18.8654 22.0924L21.685 17.9259C21.9382 17.5492 22.306 17.2651 22.7332 17.1162C23.1604 16.9672 23.624 16.9614 24.0548 17.0995C24.4364 17.2378 24.773 17.4788 25.0277 17.7964C25.2824 18.1139 25.4455 18.4957 25.4991 18.9001Z" fill="#222222"/>
</g>
<defs>
<clipPath id="clip0_2696_8443">
<rect width="70" height="70" fill="white"/>
</clipPath>
</defs>
</svg>
