<svg width="70" height="70" viewBox="0 0 70 70" fill="none" xmlns="http://www.w3.org/2000/svg">
<g clip-path="url(#clip0_2696_10309)">
<circle cx="35" cy="35" r="35" fill="#FDB913"/>
<path d="M49.2871 39.7188H47.5496C47.5801 39.5581 47.5948 39.3948 47.5934 39.2313V35.4188C47.5917 34.6568 47.2883 33.9265 46.7495 33.3877C46.2107 32.8489 45.4803 32.5455 44.7184 32.5438H38.4684C38.5809 32.4563 38.6871 32.3625 38.7934 32.2625C39.4293 31.6228 39.9315 30.8627 40.2706 30.0268C40.6097 29.1909 40.7789 28.2958 40.7684 27.3938C40.7735 26.4615 40.5796 25.5389 40.1996 24.6875C38.8684 21.7563 36.0371 21.35 33.8809 21.6688V19.5813C33.8809 19.2498 33.7492 18.9318 33.5147 18.6974C33.2803 18.463 32.9624 18.3313 32.6309 18.3313C32.2999 18.3327 31.983 18.4653 31.7496 18.7C31.5149 18.9334 31.3823 19.2503 31.3809 19.5813V21.6625C29.2496 21.35 26.4496 21.7688 25.1309 24.6875C24.5895 25.9481 24.4347 27.341 24.6862 28.6897C24.9377 30.0383 25.5841 31.2818 26.5434 32.2625C26.6517 32.3625 26.7579 32.4563 26.8621 32.5438H20.6246C19.8638 32.5438 19.1341 32.846 18.5961 33.384C18.0581 33.922 17.7559 34.6517 17.7559 35.4125V39.2313C17.7575 39.9933 18.0609 40.7236 18.5998 41.2624C19.1386 41.8012 19.8689 42.1046 20.6309 42.1063H22.4371C22.4044 42.2857 22.3877 42.4677 22.3871 42.6501V46.3438C22.3871 47.1212 22.6959 47.8668 23.2457 48.4165C23.7954 48.9662 24.5409 49.2751 25.3184 49.2751H49.2871C50.0645 49.2751 50.8101 48.9662 51.3598 48.4165C51.9095 47.8668 52.2184 47.1212 52.2184 46.3438V42.6501C52.2184 41.8726 51.9095 41.1271 51.3598 40.5773C50.8101 40.0276 50.0645 39.7188 49.2871 39.7188ZM20.6246 39.6063C20.5262 39.6047 20.4325 39.5644 20.3635 39.4943C20.2945 39.4241 20.2558 39.3297 20.2559 39.2313V35.4188C20.2558 35.3204 20.2945 35.226 20.3635 35.1558C20.4325 35.0857 20.5262 35.0454 20.6246 35.0438H44.7184C44.8178 35.0438 44.9132 35.0833 44.9835 35.1536C45.0539 35.224 45.0934 35.3193 45.0934 35.4188V39.2313C45.0934 39.3308 45.0539 39.4261 44.9835 39.4965C44.9132 39.5668 44.8178 39.6063 44.7184 39.6063H20.6246Z" fill="#222222"/>
</g>
<defs>
<clipPath id="clip0_2696_10309">
<rect width="70" height="70" fill="white"/>
</clipPath>
</defs>
</svg>
