<svg width="70" height="70" viewBox="0 0 70 70" fill="none" xmlns="http://www.w3.org/2000/svg">
<g clip-path="url(#clip0_2696_7805)">
<circle cx="35" cy="35" r="35" fill="#FDB913"/>
<path d="M50.3945 33.7193V42.1205C50.3945 42.651 50.2222 43.1671 49.9036 43.5911C49.5849 44.0152 49.1371 44.3243 48.6276 44.4718C46.783 45.0535 44.868 45.3819 42.9351 45.448C35.3726 45.448 34.4307 42.918 33.6538 40.7111C32.162 36.4968 27.4663 36.4143 25.3145 36.5861V50.8861C25.3145 51.2508 25.1696 51.6005 24.9117 51.8584C24.6539 52.1163 24.3041 52.2611 23.9395 52.2611C23.5748 52.2611 23.225 52.1163 22.9672 51.8584C22.7093 51.6005 22.5645 51.2508 22.5645 50.8861V20.093C22.566 19.7289 22.7119 19.3803 22.9701 19.1236C23.2268 18.8654 23.5754 18.7196 23.9395 18.718C24.3041 18.718 24.6539 18.8629 24.9117 19.1207C25.1696 19.3786 25.3145 19.7283 25.3145 20.093V20.4436C27.7276 19.9899 32.0863 19.543 35.0976 21.3855C35.9105 21.8777 36.6065 22.541 37.1372 23.3293C37.6679 24.1177 38.0206 25.0121 38.1707 25.9505C38.8995 29.7661 43.6707 30.3918 47.0051 30.3505C47.4497 30.346 47.8908 30.4298 48.3027 30.5972C48.7147 30.7647 49.0892 31.0123 49.4046 31.3258C49.7199 31.6392 49.9699 32.0122 50.1398 32.4231C50.3097 32.834 50.3963 33.2746 50.3945 33.7193Z" fill="#222222"/>
</g>
<defs>
<clipPath id="clip0_2696_7805">
<rect width="70" height="70" fill="white"/>
</clipPath>
</defs>
</svg>
