<svg width="70" height="70" viewBox="0 0 70 70" fill="none" xmlns="http://www.w3.org/2000/svg">
<g clip-path="url(#clip0_2696_9779)">
<circle cx="35" cy="35" r="35" fill="#FDB913"/>
<path d="M49.2754 23.0688H20.3316C17.1077 23.0688 14.4941 25.6824 14.4941 28.9063V41.0938C14.4941 44.3178 17.1077 46.9313 20.3316 46.9313H49.2754C52.4994 46.9313 55.1129 44.3178 55.1129 41.0938V28.9063C55.1129 25.6824 52.4994 23.0688 49.2754 23.0688Z" fill="#222222"/>
<path d="M30.9687 30.8688C30.97 31.5739 30.7619 32.2635 30.371 32.8503C29.98 33.4371 29.4237 33.8947 28.7724 34.1651C28.1212 34.4355 27.4044 34.5066 26.7128 34.3694C26.0211 34.2321 25.3858 33.8927 24.8872 33.3941C24.3886 32.8955 24.0492 32.2601 23.9119 31.5685C23.7746 30.8768 23.8457 30.16 24.1161 29.5088C24.3865 28.8576 24.8441 28.3013 25.4309 27.9103C26.0177 27.5193 26.7074 27.3113 27.4125 27.3125C28.3557 27.3125 29.2602 27.6872 29.9271 28.3541C30.5941 29.021 30.9687 29.9256 30.9687 30.8688Z" fill="#FDB913"/>
<path d="M34.05 41.4437C34.05 41.7752 33.9183 42.0932 33.6839 42.3276C33.4495 42.562 33.1315 42.6937 32.8 42.6937H22.0312C21.6997 42.6937 21.3818 42.562 21.1474 42.3276C20.9129 42.0932 20.7812 41.7752 20.7812 41.4437C20.7829 39.8463 21.4182 38.3148 22.5478 37.1852C23.6773 36.0557 25.2088 35.4204 26.8062 35.4187H28.025C29.6241 35.4204 31.1572 36.0563 32.2879 37.187C33.4186 38.3178 34.0546 39.8509 34.0563 41.45L34.05 41.4437Z" fill="#FDB913"/>
<path d="M48.2629 29.2749H38.4941C37.8038 29.2749 37.2441 29.8345 37.2441 30.5249C37.2441 31.2153 37.8038 31.7749 38.4941 31.7749H48.2629C48.9532 31.7749 49.5129 31.2153 49.5129 30.5249C49.5129 29.8345 48.9532 29.2749 48.2629 29.2749Z" fill="#FDB913"/>
<path d="M48.2629 38.2251H38.4941C37.8038 38.2251 37.2441 38.7847 37.2441 39.4751C37.2441 40.1655 37.8038 40.7251 38.4941 40.7251H48.2629C48.9532 40.7251 49.5129 40.1655 49.5129 39.4751C49.5129 38.7847 48.9532 38.2251 48.2629 38.2251Z" fill="#FDB913"/>
<path d="M48.2629 33.75H38.4941C37.8038 33.75 37.2441 34.3096 37.2441 35C37.2441 35.6904 37.8038 36.25 38.4941 36.25H48.2629C48.9532 36.25 49.5129 35.6904 49.5129 35C49.5129 34.3096 48.9532 33.75 48.2629 33.75Z" fill="#FDB913"/>
</g>
<defs>
<clipPath id="clip0_2696_9779">
<rect width="70" height="70" fill="white"/>
</clipPath>
</defs>
</svg>
