<svg width="70" height="70" viewBox="0 0 70 70" fill="none" xmlns="http://www.w3.org/2000/svg">
<g clip-path="url(#clip0_2696_9813)">
<circle cx="35" cy="35" r="35" fill="#FDB913"/>
<path d="M51.768 32.0562C51.7589 31.6789 51.6558 31.3099 51.4681 30.9825C51.2804 30.6551 51.014 30.3797 50.693 30.1812L47.7055 28.3437C47.4236 28.17 47.0843 28.1152 46.7621 28.1913C46.4398 28.2675 46.161 28.4684 45.9867 28.75C45.813 29.0318 45.7582 29.3711 45.8344 29.6934C45.9105 30.0156 46.1114 30.2944 46.393 30.4687L48.7492 31.9062C48.9061 32.0017 49.036 32.1356 49.1267 32.2953C49.2175 32.4549 49.2661 32.6351 49.268 32.8187L49.4242 44.2062C49.3617 44.5937 49.168 44.7875 48.8555 44.7875C48.7871 44.7953 48.7179 44.7888 48.6522 44.7683C48.5865 44.7478 48.5258 44.7138 48.474 44.6685C48.4222 44.6232 48.3805 44.5676 48.3514 44.5052C48.3224 44.4428 48.3068 44.375 48.3055 44.3062V37.3875C48.2974 37.084 48.1715 36.7956 47.9545 36.5833C47.7376 36.371 47.4465 36.2515 47.143 36.25H44.018V22.7937C44.018 21.7991 43.6229 20.8453 42.9196 20.1421C42.2164 19.4388 41.2625 19.0437 40.268 19.0437H26.3242C25.3297 19.0437 24.3758 19.4388 23.6726 20.1421C22.9693 20.8453 22.5742 21.7991 22.5742 22.7937V47.2687C22.5742 48.2633 22.9693 49.2171 23.6726 49.9204C24.3758 50.6236 25.3297 51.0187 26.3242 51.0187H40.2117C41.2063 51.0187 42.1601 50.6236 42.8634 49.9204C43.5666 49.2171 43.9617 48.2633 43.9617 47.2687V38.75H45.3742C45.4836 38.75 45.5885 38.7934 45.6659 38.8708C45.7433 38.9481 45.7867 39.053 45.7867 39.1625V44.525C45.8453 45.2897 46.1923 46.0037 46.7574 46.5224C47.3224 47.0411 48.0635 47.3257 48.8305 47.3187C49.6069 47.3056 50.3507 47.004 50.9168 46.4725C51.483 45.941 51.831 45.2178 51.893 44.4437V44.375L51.768 32.0562ZM40.1055 28.3062C40.1022 28.9212 39.856 29.5101 39.4205 29.9444C38.985 30.3787 38.3955 30.6233 37.7805 30.625H28.5617C27.9252 30.625 27.3147 30.3721 26.8647 29.922C26.4146 29.4719 26.1617 28.8615 26.1617 28.225V25.0625C26.1617 24.469 26.3975 23.8999 26.8171 23.4803C27.2367 23.0607 27.8058 22.825 28.3992 22.825H37.7742C38.3947 22.8249 38.9899 23.071 39.4293 23.5092C39.8687 23.9474 40.1163 24.5419 40.118 25.1625L40.1055 28.3062Z" fill="#222222"/>
<path d="M34.4684 42.4999C34.4684 42.8182 34.3419 43.1234 34.1169 43.3484C33.8918 43.5735 33.5866 43.6999 33.2684 43.6999C32.9501 43.6999 32.6449 43.5735 32.4198 43.3484C32.1948 43.1234 32.0684 42.8182 32.0684 42.4999C32.2209 41.7518 32.5136 41.0393 32.9309 40.3999C32.967 40.3431 33.0168 40.2964 33.0758 40.264C33.1348 40.2316 33.2011 40.2146 33.2684 40.2146C33.3357 40.2146 33.4019 40.2316 33.4609 40.264C33.5199 40.2964 33.5697 40.3431 33.6059 40.3999C34.0222 41.0398 34.3148 41.7521 34.4684 42.4999Z" fill="#222222"/>
<path d="M34.6062 44.9375C34.4555 44.1718 34.1304 43.4511 33.6562 42.8313C33.6139 42.7681 33.5567 42.7163 33.4897 42.6805C33.4226 42.6447 33.3478 42.626 33.2718 42.626C33.1958 42.626 33.121 42.6447 33.0539 42.6805C32.9869 42.7163 32.9297 42.7681 32.8874 42.8313C32.4116 43.4508 32.0844 44.1714 31.9312 44.9375C31.8979 45.3287 32.0194 45.7173 32.2694 46.0199C32.5195 46.3226 32.8782 46.5151 33.2687 46.5563C33.6598 46.5167 34.0195 46.3246 34.2698 46.0215C34.5202 45.7185 34.6411 45.329 34.6062 44.9375Z" fill="#222222"/>
</g>
<defs>
<clipPath id="clip0_2696_9813">
<rect width="70" height="70" fill="white"/>
</clipPath>
</defs>
</svg>
