<svg width="70" height="70" viewBox="0 0 70 70" fill="none" xmlns="http://www.w3.org/2000/svg">
<g clip-path="url(#clip0_2696_9802)">
<circle cx="35" cy="35" r="35" fill="#FDB913"/>
<path d="M47.5648 44.6687V49.1855C47.5648 49.7216 47.3519 50.2357 46.9728 50.6148C46.5938 50.9938 46.0797 51.2068 45.5436 51.2068H25.5442C25.2668 51.2077 24.9919 51.1537 24.7355 51.048C24.479 50.9422 24.2459 50.7868 24.0498 50.5906C23.8536 50.3945 23.6982 50.1614 23.5924 49.9049C23.4867 49.6485 23.4327 49.3736 23.4336 49.0962V44.6687C23.4331 42.7325 24.0133 40.8406 25.0992 39.2376C26.185 37.6346 27.7266 36.394 29.5249 35.6762L29.6761 35.6212C30.0446 35.4696 30.4237 35.3455 30.8105 35.2499C31.5706 35.0612 32.351 34.9665 33.1342 34.968H37.8642C38.6474 34.9665 39.4279 35.0612 40.188 35.2499C40.5746 35.3433 40.9537 35.4651 41.3224 35.6143L41.4736 35.6693C43.2729 36.3875 44.8153 37.6292 45.9012 39.2336C46.9872 40.838 47.5667 42.7313 47.5648 44.6687Z" fill="#222222"/>
<path d="M45.1247 26.945H44.8841C44.5849 26.9394 44.2976 26.8267 44.0743 26.6274C43.851 26.4281 43.7066 26.1554 43.6672 25.8588C43.4692 24.0337 42.6991 22.318 41.4672 20.9569C40.0922 19.5475 38.0778 18.8325 35.5272 18.8325C32.7085 18.8325 30.5497 19.63 29.1266 21.1975C27.8033 22.8092 27.06 24.8189 27.0159 26.9038H28.5628C28.5713 25.1751 29.2212 23.5111 30.3865 22.2342C31.5519 20.9573 33.1497 20.1584 34.8704 19.9923C36.5911 19.8262 38.3122 20.3047 39.7002 21.3351C41.0883 22.3656 42.0445 23.8745 42.3835 25.5696C42.7225 27.2648 42.4203 29.0254 41.5353 30.5104C40.6503 31.9954 39.2457 33.0991 37.5934 33.6076C35.9412 34.1161 34.159 33.9932 32.5922 33.2627C31.0254 32.5322 29.7856 31.2462 29.1128 29.6538H24.3759L24.2591 28.4163C24.2591 28.1963 23.7778 22.9644 27.0641 19.3481C29.0303 17.1825 31.8766 16.0825 35.4997 16.0825C38.8272 16.0825 41.4947 17.0794 43.4197 19.0456C45.0707 20.8393 46.1063 23.1128 46.376 25.5356C46.3963 25.7123 46.3791 25.8913 46.3255 26.0609C46.272 26.2305 46.1833 26.3869 46.0652 26.5199C45.9471 26.6529 45.8023 26.7595 45.6403 26.8327C45.4782 26.906 45.3025 26.9443 45.1247 26.945Z" fill="#222222"/>
</g>
<defs>
<clipPath id="clip0_2696_9802">
<rect width="70" height="70" fill="white"/>
</clipPath>
</defs>
</svg>
